<mxfile host="app.diagrams.net" modified="2021-04-05T21:57:23.532Z" agent="5.0 (Windows NT 10.0; Win64; x64) AppleWebKit/537.36 (KHTML, like Gecko) Chrome/89.0.4389.114 Safari/537.36" etag="ycj6EVk_KOaj8OHm-n-r" version="14.5.4" type="github">
  <diagram id="stdUhQEAfxj0wNbAoXbi" name="Page-1">
    <mxGraphModel dx="1102" dy="582" grid="1" gridSize="10" guides="1" tooltips="1" connect="1" arrows="1" fold="1" page="1" pageScale="1" pageWidth="850" pageHeight="1100" math="0" shadow="0">
      <root>
        <mxCell id="0" />
        <mxCell id="1" parent="0" />
        <mxCell id="zb8YCU8-YoxPme7ainJi-1" value="" style="rounded=0;whiteSpace=wrap;html=1;" parent="1" vertex="1">
          <mxGeometry x="40" y="110" width="770" height="320" as="geometry" />
        </mxCell>
        <mxCell id="zb8YCU8-YoxPme7ainJi-2" value="merch controller - stateful component" style="text;html=1;strokeColor=none;fillColor=none;align=center;verticalAlign=middle;whiteSpace=wrap;rounded=0;" parent="1" vertex="1">
          <mxGeometry x="299.17721518987344" y="120" width="131.64556962025318" height="20" as="geometry" />
        </mxCell>
        <mxCell id="zb8YCU8-YoxPme7ainJi-3" value="" style="rounded=0;whiteSpace=wrap;html=1;" parent="1" vertex="1">
          <mxGeometry x="89.36708860759494" y="150" width="131.64556962025318" height="270" as="geometry" />
        </mxCell>
        <mxCell id="zb8YCU8-YoxPme7ainJi-4" value="Merch List" style="text;html=1;strokeColor=none;fillColor=none;align=center;verticalAlign=middle;whiteSpace=wrap;rounded=0;" parent="1" vertex="1">
          <mxGeometry x="114.05063291139241" y="160" width="74.05063291139241" height="20" as="geometry" />
        </mxCell>
        <mxCell id="zb8YCU8-YoxPme7ainJi-5" value="" style="rounded=0;whiteSpace=wrap;html=1;" parent="1" vertex="1">
          <mxGeometry x="262.1518987341772" y="150" width="123.41772151898735" height="270" as="geometry" />
        </mxCell>
        <mxCell id="zb8YCU8-YoxPme7ainJi-6" value="Merch" style="rounded=0;whiteSpace=wrap;html=1;" parent="1" vertex="1">
          <mxGeometry x="105.82278481012659" y="255" width="98.73417721518987" height="15" as="geometry" />
        </mxCell>
        <mxCell id="zb8YCU8-YoxPme7ainJi-7" value="Merch" style="rounded=0;whiteSpace=wrap;html=1;" parent="1" vertex="1">
          <mxGeometry x="105.82278481012659" y="200" width="98.73417721518987" height="20" as="geometry" />
        </mxCell>
        <mxCell id="zb8YCU8-YoxPme7ainJi-8" value="Merch" style="rounded=0;whiteSpace=wrap;html=1;" parent="1" vertex="1">
          <mxGeometry x="105.82278481012659" y="310" width="98.73417721518987" height="20" as="geometry" />
        </mxCell>
        <mxCell id="zb8YCU8-YoxPme7ainJi-9" value="Add Merch Form" style="text;html=1;strokeColor=none;fillColor=none;align=center;verticalAlign=middle;whiteSpace=wrap;rounded=0;" parent="1" vertex="1">
          <mxGeometry x="274.49367088607596" y="150" width="82.27848101265823" height="20" as="geometry" />
        </mxCell>
        <mxCell id="zb8YCU8-YoxPme7ainJi-10" value="" style="rounded=0;whiteSpace=wrap;html=1;" parent="1" vertex="1">
          <mxGeometry x="410.2531645569621" y="150" width="123.41772151898735" height="270" as="geometry" />
        </mxCell>
        <mxCell id="zb8YCU8-YoxPme7ainJi-11" value="Merch Details&lt;br&gt;" style="text;html=1;strokeColor=none;fillColor=none;align=center;verticalAlign=middle;whiteSpace=wrap;rounded=0;" parent="1" vertex="1">
          <mxGeometry x="451.39240506329116" y="160" width="32.911392405063296" height="20" as="geometry" />
        </mxCell>
        <mxCell id="zb8YCU8-YoxPme7ainJi-12" value="" style="rounded=0;whiteSpace=wrap;html=1;" parent="1" vertex="1">
          <mxGeometry x="558.3544303797469" y="150" width="106.96202531645571" height="270" as="geometry" />
        </mxCell>
        <mxCell id="zb8YCU8-YoxPme7ainJi-13" value="Edit Merch" style="text;html=1;strokeColor=none;fillColor=none;align=center;verticalAlign=middle;whiteSpace=wrap;rounded=0;" parent="1" vertex="1">
          <mxGeometry x="587.1518987341773" y="160" width="49.36708860759494" height="20" as="geometry" />
        </mxCell>
        <mxCell id="zb8YCU8-YoxPme7ainJi-14" value="" style="rounded=1;whiteSpace=wrap;html=1;" parent="1" vertex="1">
          <mxGeometry x="274.49367088607596" y="180" width="98.73417721518987" height="230" as="geometry" />
        </mxCell>
        <mxCell id="zb8YCU8-YoxPme7ainJi-15" value="Reusable Form" style="text;html=1;strokeColor=none;fillColor=none;align=center;verticalAlign=middle;whiteSpace=wrap;rounded=0;" parent="1" vertex="1">
          <mxGeometry x="307.40506329113924" y="235" width="32.911392405063296" height="20" as="geometry" />
        </mxCell>
        <mxCell id="zb8YCU8-YoxPme7ainJi-17" value="" style="rounded=1;whiteSpace=wrap;html=1;" parent="1" vertex="1">
          <mxGeometry x="562.47" y="190" width="98.73" height="220" as="geometry" />
        </mxCell>
        <mxCell id="zb8YCU8-YoxPme7ainJi-18" value="Reusable Form&lt;br&gt;" style="text;html=1;strokeColor=none;fillColor=none;align=center;verticalAlign=middle;whiteSpace=wrap;rounded=0;" parent="1" vertex="1">
          <mxGeometry x="595.379746835443" y="210" width="32.911392405063296" height="20" as="geometry" />
        </mxCell>
        <mxCell id="aLGmNxjmz7APoRL6lMkc-1" value="" style="rounded=0;whiteSpace=wrap;html=1;" parent="1" vertex="1">
          <mxGeometry x="40" y="40" width="770" height="60" as="geometry" />
        </mxCell>
        <mxCell id="aLGmNxjmz7APoRL6lMkc-2" value="Header" style="text;html=1;strokeColor=none;fillColor=none;align=center;verticalAlign=middle;whiteSpace=wrap;rounded=0;" parent="1" vertex="1">
          <mxGeometry x="389.99721518987343" y="40" width="115.18987341772153" height="20" as="geometry" />
        </mxCell>
        <mxCell id="aLGmNxjmz7APoRL6lMkc-4" value="CartCount" style="rounded=0;whiteSpace=wrap;html=1;" parent="1" vertex="1">
          <mxGeometry x="699.9958227848102" y="50" width="94.62025316455697" height="40" as="geometry" />
        </mxCell>
        <mxCell id="Xz1QeVkWqWz68_1-wu0c-2" value="" style="rounded=0;whiteSpace=wrap;html=1;" vertex="1" parent="1">
          <mxGeometry x="687.31" y="150" width="112.69" height="270" as="geometry" />
        </mxCell>
        <mxCell id="Xz1QeVkWqWz68_1-wu0c-4" value="Cart" style="text;html=1;strokeColor=none;fillColor=none;align=center;verticalAlign=middle;whiteSpace=wrap;rounded=0;" vertex="1" parent="1">
          <mxGeometry x="723.65" y="150" width="40" height="20" as="geometry" />
        </mxCell>
        <mxCell id="Xz1QeVkWqWz68_1-wu0c-5" value="CartItem" style="rounded=0;whiteSpace=wrap;html=1;" vertex="1" parent="1">
          <mxGeometry x="697.31" y="190" width="92.69" height="40" as="geometry" />
        </mxCell>
        <mxCell id="Xz1QeVkWqWz68_1-wu0c-7" value="CartItem" style="rounded=0;whiteSpace=wrap;html=1;" vertex="1" parent="1">
          <mxGeometry x="700" y="255" width="92.69" height="40" as="geometry" />
        </mxCell>
        <mxCell id="Xz1QeVkWqWz68_1-wu0c-8" value="CartItem" style="rounded=0;whiteSpace=wrap;html=1;" vertex="1" parent="1">
          <mxGeometry x="697.31" y="320" width="92.69" height="40" as="geometry" />
        </mxCell>
      </root>
    </mxGraphModel>
  </diagram>
</mxfile>
